<svg width="1744" height="1719" viewBox="0 0 1744 1719" fill="none" xmlns="http://www.w3.org/2000/svg">
<path d="M1084.91 1072.72C985.843 1369.63 721.203 1461.32 581.27 1092.54C562.027 1041.83 612.342 1022.95 647.529 1000.63C671.631 985.348 684.292 972.093 682.823 958.426C675.896 893.951 645.902 714.572 645.902 714.572L642.852 708.793C642.852 708.793 643.583 707.173 640.712 710.038C637.719 713.025 630.818 744.214 603.621 744.214C579.237 744.214 554.482 733.314 542.636 657.886C538.348 630.589 540.781 559.025 570.989 546.102C583.471 540.763 594.987 538.854 606.221 545.263C617.456 551.671 593.26 523.357 718.208 419.232C799.426 351.549 927.717 341.629 979.483 353.057C1031.25 364.484 1083.02 389.824 1105.91 443.483C1133.69 508.593 1080.03 557.759 1091.82 706.042C1089.67 759.617 1092.74 877.198 945.313 916.607C917.313 924.093 926 965 968 975C1035 996 1084.96 1047.27 1084.96 1072.86" fill="white"/>
<path fill-rule="evenodd" clip-rule="evenodd" d="M1084.94 611.2L1085.1 609.806C1089.24 573.399 1093.26 538.118 1112.24 506.429C1118.7 510.85 1117.95 516.452 1115.93 521.643C1096.01 572.845 1097.84 626.04 1099.67 679.206C1099.83 683.863 1099.99 688.519 1100.14 693.174C1102.22 759.601 1085.65 819.988 1041.35 870.736C1025.98 888.348 1005.63 900.464 984.854 911.045C963.515 921.912 959.03 931.132 965.687 954.599C965.93 955.455 966.229 956.315 966.529 957.178C967.892 961.1 969.273 965.073 965.487 968.95C960.965 973.58 956.026 972.259 950.683 970.829C950.48 970.775 950.277 970.721 950.074 970.667C899.733 957.241 854.697 933.154 813.056 902.393C807.139 898.022 802.272 892.06 797.561 886.29L797.561 886.289L797.256 885.916C794.776 882.879 794.338 878.141 797.807 875.462C801.054 872.955 803.609 875.011 806.452 877.298C806.815 877.59 807.182 877.886 807.556 878.176C830.027 895.614 854.773 907.063 883.768 909.943C897.176 911.275 910.448 910.784 923.708 910.293H923.708H923.709C931.17 910.017 938.626 909.741 946.101 909.79C956.34 909.857 964.752 905.107 972.761 900.584C973.712 900.047 974.658 899.513 975.601 898.99C1003.45 883.545 1029.88 866.229 1047.84 838.331C1063.92 813.331 1073.67 786.1 1079.4 757.443C1086.65 721.27 1085.99 684.7 1085.32 647.621C1085.11 635.536 1084.89 623.397 1084.94 611.2ZM581.684 535.824C603.577 534.064 615.771 547.033 626.037 562.053C638.664 580.526 645.39 601.465 648.37 623.572C648.87 627.28 649.389 631.223 647.152 634.856C642.737 635.45 642.319 631.946 642.252 629.317C641.696 608.644 632.526 590.61 623.308 573.156C616.73 560.704 607.059 548.64 591.943 545.577C574.71 542.084 558.858 557.566 551.067 577.842C536.636 615.398 539.029 652.36 552.455 688.759C558.33 704.687 565.648 720.913 580.303 732.026C595.142 743.28 613.008 741.295 623.903 726.349C624.526 725.494 625.184 724.649 625.845 723.801L625.845 723.801L625.845 723.801C627.841 721.238 629.853 718.656 630.928 715.749C633.035 710.049 636.256 704.629 642.155 705.423C648.978 706.342 650.271 713.729 650.909 719.499C656.707 771.928 664.758 824.024 672.81 876.126L672.81 876.126C674.808 889.053 676.806 901.98 678.769 914.913C681.369 932.023 684.381 956.598 682.361 967.05C682.219 967.792 682.136 968.523 682.058 969.222C681.749 971.958 681.496 974.21 677.906 974.75C673.034 975.484 670.831 972.66 670.233 968.28C667.913 951.274 667.273 944.747 666.275 918.735C665.308 893.519 660.569 868.665 655.83 843.816L655.83 843.815C654.111 834.799 652.392 825.784 650.853 816.753C645.613 785.996 640.483 754.802 640.022 719.777C639.326 720.808 638.644 721.825 637.974 722.826C630.426 734.095 624.264 743.295 613.48 746.877C595.58 752.827 579.917 748.422 567.371 734.277C553.071 718.155 543.783 699.808 538.558 678.498C530.244 644.587 528.704 611.368 539.487 577.853C544.655 561.774 563.189 533.208 581.684 535.824ZM616.346 663.326C620.717 666.467 624.679 669.316 628.334 657.948C627.158 615.652 613.6 588.654 592.472 587.632C603.747 602.197 614.559 616.413 615.472 636.132C610.742 633.978 607.7 630.589 604.784 627.342C602.753 625.08 600.784 622.886 598.348 621.226C597.31 620.518 596.295 619.735 595.271 618.946C590.544 615.301 585.636 611.516 577.471 614.357C581.301 620.187 586.575 624.301 591.799 628.377C597.832 633.083 603.798 637.737 607.392 644.919C596.777 652.561 592.209 662.62 597.718 674.761C602.497 685.296 609.565 694 623.565 694.635C623.043 688.31 618.868 683.707 614.812 679.235C609.879 673.796 605.121 668.55 607.316 660.635C610.515 659.133 613.516 661.291 616.346 663.326Z" fill="black"/>
<path d="M1491.4 1612.99L187.704 1609.69C187.704 1609.69 221.14 1399.99 283.904 1280.77C300.973 1248.35 364.994 1152.04 425.674 1091.11C466.474 1050.15 513.434 1035.04 514.753 1029.03C516.867 1019.4 503.639 987.699 505.907 980.583C514.019 955.135 515.388 981.445 548.007 948.827C566.274 930.56 549.382 919.158 569.599 905.615C599.413 885.642 629.65 896.937 656.554 898.015C674.526 898.737 668.974 948.295 683.9 960.472C724.206 993.355 775.66 1014.48 811.971 1024.05C858.015 1036.18 873.453 1021.46 897.284 1011.83C921.115 1002.19 935.784 1023.95 966.184 978.575C980.354 957.421 955.116 936.037 974.424 924.614C1004.64 906.742 1050.21 907.287 1069.09 916.927C1098 931.687 1085.4 958.542 1085.4 958.542C1085.4 958.542 1121.13 970.112 1128.49 980.521C1135.56 990.511 1133.49 1024.47 1133.49 1024.47C1133.49 1024.47 1130.58 1010.78 1196.75 1048.02C1280.95 1095.39 1376.03 1235.15 1419.82 1344.06C1466.36 1459.81 1491.4 1612.99 1491.4 1612.99Z" fill="white"/>
<path d="M1485.05 1612.99C1475.62 1574.47 1468.1 1535.77 1459.4 1497.3C1453.11 1469.51 1445.4 1442.23 1436.98 1415.15C1427.47 1384.5 1417.48 1354.05 1403.95 1324.68C1394.43 1304.01 1384.59 1283.59 1374.45 1263.23C1358.15 1230.5 1338.06 1200.38 1316.8 1170.83C1298.7 1145.66 1278.96 1121.89 1256.34 1100.8C1231.64 1077.68 1203.65 1058.35 1173.28 1043.43C1170.23 1041.93 1166.74 1041.05 1164.07 1039.06C1147.15 1026.42 1130.39 1032.75 1119.28 1051.98C1088.54 1105.22 1040.72 1129.64 982.105 1137.37C979.996 1137.73 977.841 1137.74 975.73 1137.38C970.108 1136.16 962.111 1136.22 962.78 1128.26C963.356 1121.4 970.698 1123.82 975.442 1123.19C1019.14 1117.4 1059.46 1103.61 1088.75 1068.87C1101.18 1054.12 1110.43 1036.52 1120.08 1019.62C1130.31 1001.7 1122.48 974.568 1096.42 969.085C1084.64 966.605 1076.87 962.826 1080.15 947.699C1082.24 938.066 1075.35 928.839 1066.97 924.739C1056.55 919.639 1045.33 915.593 1032.55 919.108C1020.76 922.35 1008.32 923.208 996.157 925.079C989.086 926.165 983.964 930.906 978.257 934.532C973.835 937.341 973.85 940.932 975.731 945.583C982.74 962.911 976.699 985.283 961.821 996.545C947.08 1007.7 931.396 1016.72 911.791 1014.87C906.901 1014.41 902.937 1016.08 899.016 1019.34C884.905 1031.1 868.567 1033.78 850.274 1033.59C811.454 1033.17 776.08 1020.97 741.061 1006.29C733.294 1003.03 727.509 993.748 714.61 998.752C741.599 1033.67 781.544 1047.18 820.21 1066.4C809.89 1072.89 802.478 1071.79 795.351 1069.36C744.036 1051.91 703.503 1021.79 678.197 972.391C669.77 955.941 663.318 939.412 660.087 921.325C657.849 908.793 654.438 907.559 642.473 912.995C629.315 918.973 617.63 927.285 606.805 936.616C594.341 947.358 586.718 960.533 588.698 978.083C589.649 986.509 588.761 995.131 588.898 1003.66C589.267 1025.92 602.752 1043.51 624.082 1049.67C631.144 1051.71 637.559 1054.8 642.496 1060.47C627.89 1067.06 601.961 1059.3 589.52 1044.64C555.765 1004.85 569.138 935.966 615.307 911.786C616.815 910.996 618.295 910.15 620.387 909.002C599.069 897.902 573.987 909.522 566.249 928.024C558.17 947.344 545.681 961.524 526.999 970.958C511.704 978.685 507.24 999.711 519.224 1010.38C542.585 1031.17 562.18 1056.2 589.08 1073C604.509 1082.63 619.239 1094.08 635.839 1100.95C651.639 1107.49 669.421 1109.35 686.425 1112.82C691.42 1113.83 696.608 1113.58 699.682 1118.38C699.952 1121.83 697.982 1123.97 695.345 1123.85C663.154 1122.44 631.894 1119.52 603.264 1100.97C578.483 1084.91 555.412 1067.35 534.393 1046.78C523.22 1035.85 511.186 1040.69 500.27 1046.84C461.241 1068.82 427.762 1097.69 397.439 1130.53C363.039 1167.8 334.309 1209.06 310.045 1253.41C290.93 1288.34 273.745 1324.11 259.495 1361.53C246.684 1395.18 234.758 1429.12 225.07 1463.62C215.707 1496.96 207.57 1530.85 204.523 1565.7C203.199 1580.86 197.229 1595.42 196.616 1611.93C191.073 1612.99 185.847 1612.99 179.5 1612.99C184.094 1580.01 189.356 1546.94 195.7 1514.08C199.387 1494.97 204.945 1476.22 209.407 1457.26C214.956 1433.67 222.837 1410.83 230.616 1387.92C239.753 1361.01 249.81 1334.49 261.439 1308.57C276.907 1274.19 294.695 1240.9 314.68 1208.94C331.482 1181.99 350.552 1156.53 371.68 1132.82C408.267 1091.79 447.949 1054.82 497.594 1029.84C503.994 1026.61 506.876 1022.87 501.733 1014.77C492.391 1000.06 495.822 969.123 517.001 959.427C533.589 951.827 543.601 937.462 551.286 921.616C561.793 899.962 580.039 888.972 602.728 888.322C622.252 887.762 641.881 887.575 661.463 887.332C670.544 887.22 675.636 888.944 671.644 899.968C669.132 906.906 669.925 914.468 676.955 919.492C679.144 920.842 680.625 923.088 681.005 925.631C685.429 956.517 708.119 971.247 733.105 983.344C752.924 992.937 772.67 1003.61 793.647 1009.63C815.437 1015.87 838.078 1021.74 861.276 1020.13C871.177 1019.5 880.61 1015.69 888.168 1009.26C894.458 1003.88 902.427 1004.44 909.808 1002.94C926.737 999.499 942.308 993.076 954.739 980.8C966.032 969.648 966.755 958.808 958.109 945.549C950.35 933.649 954.794 911.685 966.579 904.712C970.072 902.646 975.312 901.88 976.448 906.336C979.348 917.715 986.233 912.924 992.293 911.105C1010.33 905.69 1028.46 901.837 1047.57 902.934C1061.84 903.753 1073.48 909.159 1083.98 918.481C1091.77 925.397 1093.72 934.13 1093.76 943.766C1093.8 951.411 1096.18 955.697 1104.86 957.691C1129.52 963.348 1138.62 975.405 1139 1000.82C1139.07 1006.12 1140.36 1009.13 1145.34 1011.82C1179.94 1030.48 1215.69 1047.18 1246.88 1071.72C1276.16 1094.75 1299.91 1122.92 1322.41 1152.15C1364.12 1206.06 1397.96 1265.63 1422.91 1329.07C1441.12 1375.6 1456.61 1423.16 1469.28 1471.51C1481.39 1517.57 1485.29 1564.99 1496.43 1612.09C1493.23 1612.99 1489.67 1612.99 1485.05 1612.99Z" fill="black"/>
<path d="M1300.73 1612.99C1291.4 1576.59 1288.43 1539.17 1278.54 1503.09C1270.73 1474.61 1264.42 1445.55 1254.25 1417.93C1247.13 1398.58 1240.34 1378.9 1230.85 1360.26C1218.1 1335.22 1207.49 1309.09 1196.07 1283.37C1194.73 1280.34 1193.28 1276.97 1197.49 1274.46C1201.87 1271.84 1205.14 1273.92 1207.38 1277.15C1212.44 1284.45 1217.61 1291.81 1221.65 1299.69C1237.66 1330.91 1253.55 1362.36 1264.57 1395.65C1272.13 1418.46 1280.19 1441.2 1285.8 1464.78C1289.7 1481.19 1294.04 1497.61 1297.73 1514.08C1304.84 1546.33 1309.7 1579.03 1312.28 1611.96C1308.91 1612.99 1305.35 1612.99 1300.73 1612.99Z" fill="black"/>
<path d="M397.081 1612.99C395.239 1584.01 397.673 1555.13 401.374 1526.51C405.123 1497.52 405.79 1468.23 412.392 1439.42C416.265 1422.52 421.439 1405.94 425.36 1389.06C432.816 1356.97 443.511 1325.58 460.042 1296.65C462.357 1292.6 464.794 1288.61 467.404 1284.74C469.676 1281.37 471.535 1275.99 476.873 1278.52C482.65 1281.27 480.144 1286.68 478.657 1290.95C475.588 1299.74 472.436 1308.55 468.614 1317.03C450.633 1356.94 435.625 1398.22 428.126 1441.07C420.776 1483.07 412.326 1525.34 414.179 1568.62C414.779 1582.57 412.545 1596.63 411.479 1611.82C406.955 1612.99 402.566 1612.99 397.081 1612.99Z" fill="black"/>
<path d="M807.275 1282.84C805.8 1273.04 810.122 1266.05 813.923 1258.95C825.323 1237.64 822.305 1229.04 802.285 1216.28C784.573 1204.99 767.021 1193.34 758.137 1172.31C752.263 1158.4 753.688 1143.98 751.897 1129.87C750.987 1122.7 754.329 1113.9 764.178 1113.25C773.618 1112.63 785.069 1109.72 789.799 1121.61C793.211 1130.19 791.911 1138.69 783.647 1145.63C768.503 1158.35 769.717 1165.25 787.347 1174.73C801.136 1182.14 815.784 1188.01 827.79 1198.57C851.639 1219.56 853.899 1254.65 832.307 1277.84C825.52 1285.14 824.498 1293.14 826.314 1302.42C827.153 1306.71 828.979 1312.59 823.175 1314.71C817.857 1316.65 816.698 1310.73 813.975 1307.77C807.676 1300.9 806.862 1292.65 807.275 1282.84Z" fill="black"/>
<path d="M982.284 1320.46C983.548 1323.85 986.856 1325.72 985.375 1329.1C964.718 1329.4 950.423 1304.7 959.295 1285C964.32 1273.85 972.731 1264.49 975.05 1251.82C978.067 1235.34 975.1 1226.57 960.095 1219.45C933.035 1206.61 920.329 1186.45 924.822 1156.11C926.209 1146.75 926.176 1138.48 913.047 1135.36C904.01 1133.22 901.756 1123.22 903.801 1114.33C905.736 1105.93 912.582 1100.53 920.701 1101.85C928.439 1103.11 938.182 1105.29 937.468 1117.2C937.288 1120.21 937.081 1123.34 939.439 1125.65C950.589 1136.54 948.129 1149.72 945.539 1162.75C943.347 1173.8 945.474 1182.96 955.279 1189.48C961.653 1193.72 967.799 1198.37 974.456 1202.11C1004.68 1219.07 1010.7 1254.63 987.531 1280.49C973.22 1296.46 971.801 1306.2 982.284 1320.46Z" fill="black"/>
<path d="M1028.91 1007.01C1045.83 999.94 1046.83 990.18 1046.53 973.355C1046.44 968.355 1044.15 963.355 1047.26 958.548C1058.41 960.901 1064.93 974.909 1061.27 988.494C1055.66 1009.32 1036.89 1024.42 1012.63 1023.91C999.246 1023.64 990.33 1028.74 981.37 1036.94C973.7 1043.96 964.897 1047.41 954.37 1041.27C973.158 1031.88 985.502 1010.51 1010.07 1013.11C1016.94 1013.84 1022.12 1009.55 1028.91 1007.01Z" fill="black"/>
<path d="M578.292 342.549C597.377 315.724 617.986 291.505 642.017 270.232C679.558 237.001 722.517 212.925 770.946 201.282C803.886 193.363 838.032 191.723 872.327 197.938C919.234 206.438 961.448 223.983 997.527 255.476C1004.17 261.276 1011.65 263.464 1020.75 264.017C1043.49 265.4 1064.43 274.617 1084.82 283.702C1110.68 295.229 1135.58 309.057 1157.44 327.481C1172.01 339.756 1185.33 352.746 1191.41 371.998C1199.01 396.035 1190.48 410.77 1165.12 414.16C1161.73 414.613 1158.27 414.638 1155.23 418.441C1161.73 436.956 1172.45 454.597 1174.96 475.059C1181.84 531.228 1165.97 575.59 1111.2 599.118C1105.72 601.47 1100.29 604.587 1094.53 599.684C1088.81 594.815 1093.55 590.63 1095.08 586.039C1095.82 583.801 1096.03 580.639 1095 578.675C1088.64 566.482 1088.46 553.291 1087.81 540.075C1087.36 530.915 1083.9 525.275 1074.87 519.412C1030.02 490.267 993.236 453.142 971.202 403.305C969.044 398.424 967.969 393.063 966.018 386.714C955.671 397.625 951.49 410.869 943.886 421.907C926.396 447.297 907.233 470.968 879.966 486.725C861.632 497.325 844.466 498.038 829.1 480.07C818.885 490.093 809.457 499.676 799.665 508.87C786.876 520.879 772.52 530.532 755.791 536.316C747.58 539.156 738.973 541.572 731.047 536.862C724.504 532.973 720.503 536.299 716.464 539.975C696.316 558.309 673.525 568.546 644.696 563.325C636.383 586.33 649.607 608.992 646.819 631.119C640.15 632.473 638.967 629.2 638.259 625.727C635.545 612.398 632.803 599.073 630.341 585.696C626.741 566.108 614.302 551.496 599.572 540.664C583.465 528.819 560.596 539.603 550.806 560.594C535.071 594.33 536.606 629.084 545.072 664.101C549.572 682.701 557.13 700.057 566.305 716.957C571.865 727.199 581.23 731.934 589.677 737.989C595.909 742.455 612.254 734.389 620.177 724.199C622.262 721.517 623.748 718.288 626.119 715.922C635.632 706.43 642.509 708.014 645.559 721.078C651.453 746.32 654.644 772.026 657.5 797.778C660.16 821.765 660.387 846.091 668.914 869.253C677.454 892.453 669.576 910.489 646.814 919.753C628.378 927.253 586.573 927.062 571.834 906.564C563.606 895.122 552.98 892.581 541.054 889.564C515.448 883.077 497.612 867.564 488.865 842.154C486.541 835.404 485.158 828.603 489.565 822.615C521.488 779.229 511.95 735.093 491.196 691.429C484.25 676.846 480.286 661.024 479.538 644.889C477.199 597.743 484.605 552.135 500 507.161C517.676 455.521 542.16 407.314 567.371 359.29C570.316 353.686 574.244 348.596 578.292 342.549Z" fill="black"/>
<path d="M965.946 804.517C974.16 799.595 977.492 804.36 980.546 809.854C969.146 826.985 930.403 830.034 919.816 813.31C934.76 808.087 951.082 811.779 965.946 804.517Z" fill="black"/>
<path d="M911.218 713.687C916.294 705.556 921.752 709.405 927.818 711.497C942.161 716.441 956.459 722.461 971.798 713.22C979.317 708.691 987.285 705.02 987.406 695.062C987.493 687.879 972.459 675.507 963.262 674.68C956.484 674.07 949.624 674.404 942.802 674.231C938.88 674.131 934.568 673.775 933.677 669.115C932.83 664.685 936.171 662.293 939.851 660.515C961.706 649.948 1008.13 668.897 1002.66 700.772C1001.06 710.135 988.303 726.224 978.98 728.209C961.68 731.892 944.341 732.192 927.136 727.968C919.912 726.192 914.044 722.052 911.218 713.687Z" fill="black"/>
<path d="M1084.14 554.94C1109.71 569.299 1113.54 606.1 1104.98 622.784C1097.06 638.229 1085.55 651.346 1072.14 662.675C1060.47 672.54 1048.32 681.221 1033.29 685.489C1026.32 687.466 1020.31 685.629 1015.16 682.203C997.084 670.181 982.028 654.703 967.746 638.484C964.66 634.936 962.385 630.757 961.08 626.238C956.811 612.006 946.218 606.968 932.773 613.247C923.894 617.394 915.973 622.956 910.46 631.552C896.893 652.718 878.641 668.937 856.872 681.333C842.664 689.423 833.365 687.724 819.858 677.66C806.891 667.979 795.028 656.901 784.482 644.626C776.091 634.908 767.734 625.317 768.799 611.202C769.149 606.559 766.299 604.23 762.336 602.916C761.123 602.509 759.86 602.269 758.581 602.204C737.344 601.273 717.33 593.296 696.041 591.885C680.01 590.822 665.131 583.2 649.521 579.263C645.014 578.127 640.842 575.48 636.312 574.663C629.828 573.5 628.523 569.178 627.212 563.063C639.008 561.228 651.08 562.654 662.123 567.186C680.409 574.354 700.123 575.55 719.087 579.947C734.587 583.54 750.612 584.977 766.798 590.015C771.298 572.515 778.319 557.33 796.444 549.997C816.261 541.979 829.644 553.209 844.381 564.973C859.627 556.883 875.79 547.733 894.118 555.161C912.536 562.625 916.918 579.883 920.284 597.944C931.884 598.316 943.106 594.4 954.32 597.219C958.163 590.23 958.655 582.893 960.564 576.019C967.47 551.143 993.978 539.94 1016.08 552.864C1016.85 553.231 1017.58 553.675 1018.26 554.19C1028.08 563.1 1037.38 563.848 1049.81 557.056C1059.35 551.849 1071.62 549.535 1084.14 554.94Z" fill="black"/>
<path d="M827.481 552.562C837.91 548.017 847.238 541.279 854.829 532.807C857.548 529.76 860.905 527.069 864.66 527.723C871.426 528.902 880.887 526.897 883.46 535.264C885.629 542.308 878.283 545.764 873.178 549.664C859.364 560.208 844.999 568.671 826.596 566.435C821.962 565.871 816.91 566.649 815.505 560.209C817.181 554.698 822.895 555.345 827.481 552.562Z" fill="black"/>
<path d="M1025.42 530.056C1033.89 528.349 1038 534.131 1042.53 538.228C1050.65 545.565 1057.24 554.618 1068.51 557.972C1071.81 558.955 1074.22 561.972 1072.46 566.057C1070.98 569.503 1068.42 571.699 1064.41 570.622C1050.19 566.793 1035.33 564.746 1023.91 553.816C1013.81 544.15 1013.68 539.796 1025.42 530.056Z" fill="black"/>
</svg>
